<svg xmlns="http://www.w3.org/2000/svg" viewBox="0 0 60 60"><defs><style>.cls-1{fill:#707070;}</style></defs><title>1</title><g id="Шар_2" data-name="Шар 2"><g id="Шар_1-2" data-name="Шар 1"><path class="cls-1" d="M55.19,15.43a9,9,0,0,1-1.81,1.41L43.16,6.62a9,9,0,0,1,1.41-1.81,2.82,2.82,0,0,0,0-4,2.84,2.84,0,0,0-4,0C36,5.4,35.93,10.94,36.73,15.93c-5.81-1.2-12.24-1.71-17.37,3.42a13.87,13.87,0,0,0-4.08,8.34.88.88,0,0,0,.76,1,.89.89,0,0,0,1-.76A12.18,12.18,0,0,1,20.6,20.6c4.73-4.73,10.7-4.05,16.47-2.8.18.86.33,1.54.5,2.28-5.74-1.3-11.29-2.22-15.47,2-9.36,9.37,6.54,25.36-3.92,35.82a1.07,1.07,0,0,1-1.5,0,1.05,1.05,0,0,1,0-1.5c6.63-6.64.71-16.17.24-25.29a.86.86,0,0,0-.92-.83.88.88,0,0,0-.84.92,37.76,37.76,0,0,0,.77,5.5c-5-.8-10.53-.73-15.1,3.85a2.79,2.79,0,0,0,0,4,2.81,2.81,0,0,0,4,0,9,9,0,0,1,1.8-1.41L16.85,53.38a8.7,8.7,0,0,1-1.42,1.8,2.82,2.82,0,0,0,4,4c4.58-4.58,4.65-10.11,3.85-15.11,6.63,1.37,12.57,1.39,17.37-3.42,5.14-5.13,4.63-11.56,3.43-17.38a26.52,26.52,0,0,0,5,.38.88.88,0,0,0,.85-.91.87.87,0,0,0-.9-.85,26,26,0,0,1-5.39-.47c-.17-.74-.33-1.44-.52-2.25,4.88,1,9.53,1.27,13.29-2.48a1.05,1.05,0,0,1,1.5,0,1.07,1.07,0,0,1,0,1.5,12.18,12.18,0,0,1-5.69,3.27.86.86,0,0,0-.63,1.06.88.88,0,0,0,1.07.64,13.67,13.67,0,0,0,6.49-3.73,2.77,2.77,0,0,0,.83-2,2.82,2.82,0,0,0-4.81-2M3.57,43.32a1.06,1.06,0,0,1-1.5-1.5,12.81,12.81,0,0,1,9.52-3.71,26.75,26.75,0,0,1,4.75.48l.52,2.24c-4.88-1-9.53-1.27-13.29,2.49m4.78-.93c2.39-.73,5.24-.45,8.93.33.78,3.69,1.06,6.54.33,8.93ZM22,38a35.53,35.53,0,0,1-1.23-8L30,39.24A35.45,35.45,0,0,1,22,38M32.3,39,21,27.7A8.44,8.44,0,0,1,22.75,24L36,37.24A8.35,8.35,0,0,1,32.3,39m5-3L24,22.75A8.46,8.46,0,0,1,27.7,21L39,32.29A8.42,8.42,0,0,1,37.25,36M38,22A36.07,36.07,0,0,1,39.25,30L30,20.75A36.07,36.07,0,0,1,38,22M39.4,39.4c-4.73,4.73-10.7,4.05-16.47,2.79-.13-.62-.26-1.25-.5-2.28,5.81,1.32,11.25,2.21,15.47-2,9.3-9.3-6.48-25.43,3.92-35.83a1.07,1.07,0,0,1,1.5,0,1.05,1.05,0,0,1,0,1.5C34,12.92,49.86,28.94,39.4,39.4m3.32-22.12c-.78-3.69-1.06-6.55-.33-8.94l9.26,9.26c-2.38.74-5.24.46-8.93-.32"/></g></g></svg>