<svg xmlns="http://www.w3.org/2000/svg" viewBox="0 0 60 46.03"><defs><style>.cls-1{fill:#707070;}</style></defs><title>2</title><g id="Шар_2" data-name="Шар 2"><g id="Шар_1-2" data-name="Шар 1"><path class="cls-1" d="M59.45,26.41c-4.62-1.88-10,1.21-13,3.38a23,23,0,0,0,0-13.56c3.69,2.71,8.71,5.11,13,3.39a.88.88,0,0,0,.48-1.15A.86.86,0,0,0,58.79,18c-5.62,2.28-13.28-4.81-13.36-4.89s-.15,0-.23-.08A23,23,0,0,0,22.72.07a.88.88,0,1,0,.14,1.75,21.2,21.2,0,0,1,22,15.47,4.59,4.59,0,0,1-1.06,1.09c-1.85,1.32-4,.53-6-.66a3.65,3.65,0,0,1,.34-4.09A.88.88,0,1,0,37,12.38a5.13,5.13,0,0,0-1.29,3.94,8.48,8.48,0,0,0-5.51-1.08A.88.88,0,1,0,30.28,17c3.89-.26,4.28.88,6.45,2.1,3,1.83,6.06,2.65,8.66.25a16.13,16.13,0,0,1,.09,6.46,22.79,22.79,0,0,0-5.14,1.39A20.87,20.87,0,0,0,34,31.06a4.19,4.19,0,0,1-1.31-3.68.89.89,0,0,0-.73-1,.88.88,0,0,0-1,.72,6,6,0,0,0,1.75,5.18,16.11,16.11,0,0,0-1.61,2,.87.87,0,0,0,.24,1.22.88.88,0,0,0,1.22-.24,15.51,15.51,0,0,1,3.28-3.46,7.62,7.62,0,0,0,1,4.53.87.87,0,0,0,1.21.27.89.89,0,0,0,.27-1.22,5.24,5.24,0,0,1-.13-5.2,23.2,23.2,0,0,1,7-2.55,21.14,21.14,0,0,1-37,8.86,6.85,6.85,0,0,0,3.39-3.41.88.88,0,0,0-.78-1.29.89.89,0,0,0-.81.53C9.11,34,8,34.93,7,35A19.36,19.36,0,0,1,4.09,28.6a1.48,1.48,0,0,0,.5.1c1.63,0,3-2.55,3-5.69s-1.33-5.68-3-5.68a1.6,1.6,0,0,0-.52.1A19.19,19.19,0,0,1,7,11.07c2.42.23,5,5.08,5,11.94a25.22,25.22,0,0,1-.65,5.69A.87.87,0,0,0,12,29.76a.88.88,0,0,0,1.06-.65A26.4,26.4,0,0,0,13.76,23a22.47,22.47,0,0,0-1.82-9.39A7.32,7.32,0,0,0,8.13,9.55a21.09,21.09,0,0,1,10.81-7A.88.88,0,0,0,18.48.8,22.88,22.88,0,0,0,5.86,9.62s-.09,0-.12.07c-.37.52-.65,1.08-1,1.62a15.36,15.36,0,0,0-1.69,3.48c0,.1-.09.19-.13.3C-1,18-1,27.93,2.92,30.92A23,23,0,0,0,45.2,33c.08,0,.17,0,.23-.09S53.16,25.75,58.79,28a.88.88,0,0,0,1.14-.49.86.86,0,0,0-.48-1.14"/><path class="cls-1" d="M33.38,23.23c1.83-1.3,4,.77,4.06.87a.88.88,0,0,0,1.24-1.25c-1.12-1.12-3.88-2.78-6.31-1.06a.88.88,0,0,0,1,1.44"/><path class="cls-1" d="M33.63,9a6.77,6.77,0,0,1,4.54,2.11A.88.88,0,0,0,39.53,10a8.57,8.57,0,0,0-5.78-2.74,5.31,5.31,0,0,1-4.12-2.44.88.88,0,1,0-1.53.85A7,7,0,0,0,33.63,9"/><path class="cls-1" d="M24.24,41.12a.87.87,0,0,0,.82.93c.35,0,.68,0,1,0,6.05,0,7.57-3.63,7.63-3.79a.89.89,0,0,0-.49-1.15.88.88,0,0,0-1.14.49c-.05.12-1.35,3-6.89,2.66a.88.88,0,0,0-.93.82"/></g></g></svg>