<svg xmlns="http://www.w3.org/2000/svg" viewBox="0 0 60 60"><defs><style>.cls-1{fill:#707070;}</style></defs><title>3</title><g id="Шар_2" data-name="Шар 2"><g id="Шар_1-2" data-name="Шар 1"><path class="cls-1" d="M57,23.73,36.28,3A10.3,10.3,0,0,0,21.72,17.57l1.37,1.36a.88.88,0,0,0,1.24,0,.87.87,0,0,0,0-1.24L23,16.33A8.53,8.53,0,1,1,35,4.26l10.6,10.49-7.16,7.16a10.27,10.27,0,0,0-14.74-.19L3,42.43A10.29,10.29,0,0,0,10.3,60a10.23,10.23,0,0,0,7.27-3S38.48,36.17,39.3,35.11c2.15,2.15,1.44,1.43,3.12,3.17h0A10.3,10.3,0,0,0,57,23.73M26.54,45.63,18.82,37.9a.88.88,0,0,0-1.25,1.25l7.73,7.72-9,8.88A8.54,8.54,0,0,1,4.26,43.67l9-8.87,1.86,1.86a.88.88,0,1,0,1.24-1.24l-1.86-1.86L25,23A8.54,8.54,0,0,1,38.39,33.28v0h0c-.69,1.2-.54.92-11.82,12.3M55.75,37a8.55,8.55,0,0,1-12.07,0c-1.89-1.95-.85-.9-3.45-3.49a10.29,10.29,0,0,0-.65-10.27L46.87,16l8.88,9a8.55,8.55,0,0,1,0,12.07"/></g></g></svg>