<svg xmlns="http://www.w3.org/2000/svg" viewBox="0 0 60 65.36"><defs><style>.cls-1{fill:#707070;}</style></defs><title>4</title><g id="Шар_2" data-name="Шар 2"><g id="Шар_1-2" data-name="Шар 1"><path class="cls-1" d="M13.32,29.18H22a1,1,0,0,0,0-1.92H13.32a1,1,0,1,0,0,1.92"/><path class="cls-1" d="M27.87,33.18a1,1,0,0,0-1-1H13.32a1,1,0,1,0,0,1.91H26.91a1,1,0,0,0,1-1"/><path class="cls-1" d="M13.32,37.85h7.41a1,1,0,1,0,0-1.91H13.32a1,1,0,1,0,0,1.91"/><path class="cls-1" d="M31.73,58.49H8.43a4.7,4.7,0,0,0,.9-2.76V2.23a.31.31,0,0,1,.32-.31h.17a.33.33,0,0,1,.23.09l2.09,2.1a1,1,0,0,0,.68.28,1,1,0,0,0,.68-.28L15.6,2a.31.31,0,0,1,.22-.09H16a.33.33,0,0,1,.23.09l2.09,2.1a1,1,0,0,0,.68.28,1,1,0,0,0,.68-.28L21.78,2A.31.31,0,0,1,22,1.92h.18a.33.33,0,0,1,.23.09l2.09,2.1a1,1,0,0,0,1.36,0L28,2a.31.31,0,0,1,.22-.09h.18a.29.29,0,0,1,.22.09l2.1,2.1a1,1,0,0,0,1.36,0L34.14,2a.31.31,0,0,1,.22-.09h.18a.31.31,0,0,1,.22.09l2.1,2.1a1,1,0,0,0,1.36,0L40.32,2a.29.29,0,0,1,.22-.09h.17a.31.31,0,0,1,.32.31V19.55a1,1,0,0,0,1.92,0V2.23A2.24,2.24,0,0,0,40.71,0h-.17A2.24,2.24,0,0,0,39,.66L37.54,2.08,36.12.66A2.24,2.24,0,0,0,34.54,0h-.18a2.24,2.24,0,0,0-1.58.66L31.36,2.08,29.94.66A2.24,2.24,0,0,0,28.36,0h-.18A2.24,2.24,0,0,0,26.6.66L25.18,2.08,23.76.66A2.24,2.24,0,0,0,22.18,0H22a2.24,2.24,0,0,0-1.58.66L19,2.08,17.58.66A2.22,2.22,0,0,0,16,0h-.18a2.2,2.2,0,0,0-1.58.66L12.82,2.08,11.4.66A2.24,2.24,0,0,0,9.82,0H9.65A2.23,2.23,0,0,0,7.42,2.23v53.5a2.75,2.75,0,1,1-5.5,0v-26a.31.31,0,0,1,.31-.31h.18a.31.31,0,0,1,.22.09l2.1,2.1a1,1,0,1,0,1.35-1.35L4,28.17a2.26,2.26,0,0,0-1.58-.66H2.23A2.23,2.23,0,0,0,0,29.74v26a4.68,4.68,0,0,0,4.67,4.68H31.73a1,1,0,0,0,0-1.92"/><path class="cls-1" d="M13.32,45.29H22a1,1,0,0,0,0-1.92H13.32a1,1,0,0,0,0,1.92"/><path class="cls-1" d="M27.53,13H26V11.49a1,1,0,1,0-1.91,0V13H22.58a1,1,0,0,0,0,1.92H24.1v1.52a1,1,0,0,0,1.91,0V14.93h1.52a1,1,0,1,0,0-1.92"/><path class="cls-1" d="M26.91,54a1,1,0,1,0,0-1.91H13.32a1,1,0,1,0,0,1.91Z"/><path class="cls-1" d="M31.58,14a6.52,6.52,0,1,0-6.52,6.53A6.54,6.54,0,0,0,31.58,14m-6.52,4.62A4.62,4.62,0,1,1,29.66,14a4.62,4.62,0,0,1-4.6,4.62"/><path class="cls-1" d="M57.77,26H54.44V24.54a2.23,2.23,0,0,0-2.24-2.23H39.93a2.24,2.24,0,0,0-2.24,2.23V26H34.37a2.24,2.24,0,0,0-2.24,2.24v4.88a2.23,2.23,0,0,0,2.24,2.23h.23V61.93A3.44,3.44,0,0,0,38,65.36H54.1a3.44,3.44,0,0,0,3.43-3.43V35.37h.24A2.23,2.23,0,0,0,60,33.14V28.26A2.24,2.24,0,0,0,57.77,26m-5.19,1.92h1.8v5.52h-1.8Zm-13-3.4a.32.32,0,0,1,.32-.32H52.2a.32.32,0,0,1,.32.32V26H39.61Zm11.06,8.92H48.88V27.94h1.79Zm-3.71,0H45.17V27.94H47Zm-3.71,0H41.46V27.94h1.79Zm-5.5-5.52h1.8v5.52h-1.8Zm-1.91,5.52H34.37a.32.32,0,0,1-.32-.32V28.26a.32.32,0,0,1,.32-.32h1.47ZM55.61,61.93a1.52,1.52,0,0,1-1.51,1.52H38a1.52,1.52,0,0,1-1.51-1.52V56.44H55.61Zm0-7.41H36.52V40.33H55.61Zm0-16.1H36.52V35.37H55.61Zm2.47-5.28a.32.32,0,0,1-.31.32H56.29V27.94h1.48a.31.31,0,0,1,.31.32Z"/><path class="cls-1" d="M40.5,45.29H51.63a1,1,0,0,0,0-1.92H40.5a1,1,0,0,0,0,1.92"/><path class="cls-1" d="M48.54,47.09H43.59a1,1,0,0,0,0,1.91h4.95a1,1,0,1,0,0-1.91"/><path class="cls-1" d="M31.85,48.33H13.32a1,1,0,1,0,0,1.91H31.85a1,1,0,1,0,0-1.91"/></g></g></svg>