<svg id="Layer_1" data-name="Layer 1" xmlns="http://www.w3.org/2000/svg" viewBox="0 0 197 77"><defs><style>.cls-1{fill:none;}.cls-2{fill:#76a62d;}</style></defs><title>Logo_oplata</title><g id="LIQPAY"><path id="Path_69" data-name="Path 69" class="cls-1" d="M104.32,40.61h9.9l-5-14.23Z"/><g id="Group_123" data-name="Group 123"><path id="Path_70" data-name="Path 70" class="cls-1" d="M104.32,40.61h9.9l-5-14.23Z"/><path id="Path_71" data-name="Path 71" class="cls-2" d="M112.22,23.87c-.28-.81-.64-1.5-1.43-1.53h-2l-.18,0H108l-.18,0h0c-.66.1-1,.75-1.23,1.51L96.94,50.91a.63.63,0,0,0,.64.65h2c.8,0,1.22-.66,1.46-1.46L103,44.46a1,1,0,0,1,.91-.64h10.77a1,1,0,0,1,.91.64l2,5.7c.24.8.67,1.45,1.51,1.45h2.12a.67.67,0,0,0,.68-.65h0Zm-7.9,16.74,4.88-14.23,5,14.23Z"/></g><g id="Group_124" data-name="Group 124"><path id="Path_72" data-name="Path 72" class="cls-2" d="M140.52,22.41a12.83,12.83,0,0,0-1.75-.09c-1,0-1.65,0-2.1.63a1.69,1.69,0,0,0-.17.29l-6,13-6.18-13a2.19,2.19,0,0,0-.17-.29c-.45-.62-1.09-.6-2.1-.62a11.6,11.6,0,0,0-1.76.09c-.61.23-.21,1,.08,1.61L128,39.15a4.9,4.9,0,0,1,.53,2.22V50.5a1.12,1.12,0,0,0,1.11,1.12h1.59a1.11,1.11,0,0,0,1.11-1.12V41.42a4.9,4.9,0,0,1,.53-2.22L140.43,24C140.73,23.4,141.14,22.64,140.52,22.41Z"/><path id="Path_73" data-name="Path 73" class="cls-2" d="M169.5,36.53h0L151.3,21.29a.33.33,0,0,0-.45,0l-2.69,2.8L163,36.53,148.16,49l2.69,2.8a.33.33,0,0,0,.45,0l18.2-15.24Z"/><path id="Path_74" data-name="Path 74" class="cls-2" d="M182.57,36.65h0L164.38,21.42a.33.33,0,0,0-.46,0l-2.69,2.8,14.86,12.42L161.23,49.07l2.69,2.8a.33.33,0,0,0,.46,0l18.19-15.23Z"/></g><g id="Group_125" data-name="Group 125"><path id="Path_75" data-name="Path 75" class="cls-2" d="M40.31,22.3H38a.87.87,0,0,0-.86.87h0V50.64a.92.92,0,0,0,.91.92h2.21a.93.93,0,0,0,.92-.92V23.17A.89.89,0,0,0,40.31,22.3Z"/><path id="Path_76" data-name="Path 76" class="cls-2" d="M32.1,48.07H21.86V23.17a.86.86,0,0,0-.86-.86H18.9a.86.86,0,0,0-.86.86h0V50.35h0a1,1,0,0,0,1,1H32.11A.9.9,0,0,0,33,50.5h0V49A.91.91,0,0,0,32.1,48.07Z"/><path id="Path_77" data-name="Path 77" class="cls-2" d="M93.93,23.92c-1.27-.86-3-1.47-6.41-1.47H81a1.41,1.41,0,0,0-1.41,1.41V50.11A1.44,1.44,0,0,0,81,51.56h1.12a1.45,1.45,0,0,0,1.46-1.45h0V40.25h5.88a8.9,8.9,0,0,0,7.94-9.17A8.69,8.69,0,0,0,93.93,23.92Zm-5.78,13.3H83.6V25.47h3.25a7,7,0,0,1,4.23,1,5.69,5.69,0,0,1,2.31,4.73,5.85,5.85,0,0,1-5.24,6Z"/><path id="Path_78" data-name="Path 78" class="cls-2" d="M75.84,52.21a2.07,2.07,0,0,0-.53-.28,34.24,34.24,0,0,1-5-2.91c-1-.62-.81-1.1-.68-1.31l.08-.1h0c2.1-2.58,3.31-6.24,3.31-10.86,0-8.18-3.5-14.81-13-14.81-8.73,0-12.92,6.63-12.92,14.81S50,51.92,60.08,51.92a13.18,13.18,0,0,0,5.6-1.16h0A1.47,1.47,0,0,1,67.3,51c4.69,3.47,7,4.74,8.68,4.74.8,0,.66-2.46.66-2.46A1.92,1.92,0,0,0,75.84,52.21ZM51.3,36.81v-.06c0-5.55,2-11.44,8.79-11.44,7.66,0,8.83,5.89,8.84,11.44v.06c0,6.6-2.14,11.62-8.84,11.62-7.69,0-8.79-6-8.79-11.62Z"/></g></g></svg>