<svg id="Layer_1" data-name="Layer 1" xmlns="http://www.w3.org/2000/svg" viewBox="0 0 197 77"><defs><style>.cls-1{fill:#231f20;}.cls-2{fill:#f79410;}.cls-3{fill:#ff5f00;}.cls-4{fill:#eb001b;}.cls-5{fill:#f79e1b;}</style></defs><title>Logo_oplata</title><g id="Group_130" data-name="Group 130"><g id="Group_126" data-name="Group 126"><path id="Path_79" data-name="Path 79" class="cls-1" d="M136.08,68.45v.16h.14l.09,0s0,0,0-.06a.09.09,0,0,0,0-.06.1.1,0,0,0-.09,0Zm.15-.11a.22.22,0,0,1,.17,0,.15.15,0,0,1,.06.14.11.11,0,0,1-.05.12.2.2,0,0,1-.14.06l.2.23h-.15l-.18-.23h-.06v.23H136v-.6Zm0,.8a.33.33,0,0,0,.19,0,.54.54,0,0,0,.16-.1.91.91,0,0,0,.11-.16.71.71,0,0,0,0-.2.5.5,0,0,0-.15-.36.57.57,0,0,0-.16-.11.5.5,0,0,0-.39,0,.62.62,0,0,0-.17.11.44.44,0,0,0-.1.16.45.45,0,0,0,0,.2.48.48,0,0,0,0,.2.54.54,0,0,0,.1.16.59.59,0,0,0,.17.1.34.34,0,0,0,.2,0m0-1.14a.45.45,0,0,1,.25,0,.74.74,0,0,1,.21.13.6.6,0,0,1,.14.21.65.65,0,0,1,0,.5.48.48,0,0,1-.14.2.6.6,0,0,1-.21.14.56.56,0,0,1-.25,0,.58.58,0,0,1-.26,0,.6.6,0,0,1-.21-.14.48.48,0,0,1-.14-.2.65.65,0,0,1,0-.5.6.6,0,0,1,.14-.21.57.57,0,0,1,.21-.13.47.47,0,0,1,.26,0m-60.6-2.31a1.94,1.94,0,0,1,1.81-2.08h.16a1.93,1.93,0,0,1,2,1.93v.15a2,2,0,0,1-1.81,2.07h-.15a1.94,1.94,0,0,1-2-1.92v-.15m5.26,0V62.44H79.44v.79a2.48,2.48,0,0,0-2-1,3.26,3.26,0,0,0-3.25,3.26v.16a3.25,3.25,0,0,0,3.09,3.4h.16a2.45,2.45,0,0,0,2-1v.79h1.41Zm47.73,0a1.94,1.94,0,0,1,1.81-2.08h.15a1.93,1.93,0,0,1,2,1.93v.15a2,2,0,0,1-1.81,2.07h-.15a1.94,1.94,0,0,1-2-1.92v-.15m5.26,0V59.83h-1.41v3.4a2.46,2.46,0,0,0-2-.95,3.26,3.26,0,0,0-3.26,3.26.76.76,0,0,0,0,.15,3.26,3.26,0,0,0,3.09,3.41h.16a2.48,2.48,0,0,0,2-.95v.79h1.41ZM98.38,63.54A1.61,1.61,0,0,1,100,65.12H96.65a1.68,1.68,0,0,1,1.73-1.58m0-1.26a3.17,3.17,0,0,0-3.25,3.1c0,.1,0,.2,0,.31a3.19,3.19,0,0,0,3,3.4h.35a4,4,0,0,0,2.66-.91l-.69-1a3.1,3.1,0,0,1-1.89.68,1.8,1.8,0,0,1-1.94-1.59h4.82a4.75,4.75,0,0,0,0-.54,3.11,3.11,0,0,0-2.81-3.4h-.27m17,3.41a2,2,0,0,1,1.81-2.08h.16a1.94,1.94,0,0,1,2,1.93v.15a2,2,0,0,1-1.81,2.07h-.15a2,2,0,0,1-2-1.92.76.76,0,0,1,0-.15m5.26,0V62.44h-1.41v.79a2.5,2.5,0,0,0-2.06-1A3.27,3.27,0,0,0,114,65.53a.92.92,0,0,0,0,.16,3.24,3.24,0,0,0,3.09,3.4h.15a2.47,2.47,0,0,0,2.06-1v.79h1.41Zm-13.24,0a3.29,3.29,0,0,0,3.15,3.41H111a3.4,3.4,0,0,0,2.33-.78l-.67-1.14a2.84,2.84,0,0,1-1.7.58,1.94,1.94,0,0,1-2-1.91c0-.06,0-.11,0-.16a2,2,0,0,1,1.79-2.08h.17a2.84,2.84,0,0,1,1.7.58l.67-1.14a3.4,3.4,0,0,0-2.33-.78,3.28,3.28,0,0,0-3.46,3.09c0,.11,0,.22,0,.33m18.21-3.42a1.91,1.91,0,0,0-1.71,1v-.79h-1.4v6.5H124V65.3c0-1.08.47-1.68,1.39-1.68a2.42,2.42,0,0,1,.88.17l.44-1.33a3,3,0,0,0-1-.18M87.83,63a4.84,4.84,0,0,0-2.65-.68c-1.64,0-2.7.79-2.7,2.08,0,1.06.79,1.71,2.24,1.91l.67.1c.78.11,1.14.31,1.14.68s-.51.79-1.48.79a3.47,3.47,0,0,1-2.16-.68l-.67,1.1A4.72,4.72,0,0,0,85,69.1c1.87,0,3-.88,3-2.12s-.86-1.74-2.27-1.94l-.67-.1c-.61-.08-1.1-.2-1.1-.64s.47-.76,1.24-.76a4.09,4.09,0,0,1,2,.56Zm18.22-.68a1.92,1.92,0,0,0-1.71.95v-.79h-1.4v6.5h1.42V65.3c0-1.07.46-1.67,1.38-1.67a2.41,2.41,0,0,1,.88.16l.44-1.33a3.4,3.4,0,0,0-1-.18m-12,.17H91.69v-2H90.26v2H89v1.29h1.31v3c0,1.51.59,2.4,2.26,2.4a3.39,3.39,0,0,0,1.77-.5l-.41-1.21a2.63,2.63,0,0,1-1.25.37c-.71,0-.94-.44-.94-1.09V63.74H94ZM72.89,69V64.87a2.43,2.43,0,0,0-2.25-2.58h-.31a2.51,2.51,0,0,0-2.28,1.15,2.38,2.38,0,0,0-2.15-1.15,2.15,2.15,0,0,0-1.9,1v-.8H62.59V69H64v-3.6a1.53,1.53,0,0,1,1.28-1.73,1.61,1.61,0,0,1,.31,0c.94,0,1.41.61,1.41,1.71v3.61h1.43v-3.6a1.53,1.53,0,0,1,1.32-1.71,1.22,1.22,0,0,1,.27,0c1,0,1.43.61,1.43,1.71v3.61Z"/></g><g id="Group_127" data-name="Group 127"><path id="Path_80" data-name="Path 80" class="cls-2" d="M137,47.34v-1h-.25l-.29.66-.28-.66h-.25v.95h.18v-.71l.26.62h.19l.26-.62v.71Zm-1.57,0v-.79h.31v-.17h-.81v.16h.32v.79Z"/></g><path id="Path_81" data-name="Path 81" class="cls-3" d="M108.83,51.42H87.42V13h21.4Z"/><g id="Group_128" data-name="Group 128"><path id="Path_82" data-name="Path 82" class="cls-4" d="M88.79,32.18A24.41,24.41,0,0,1,98.14,13,24.46,24.46,0,0,0,58.56,32.18h0A24.46,24.46,0,0,0,83,56.64h0a24.34,24.34,0,0,0,15.12-5.23,24.41,24.41,0,0,1-9.35-19.23"/></g><g id="Group_129" data-name="Group 129"><path id="Path_83" data-name="Path 83" class="cls-5" d="M137.69,32.18a24.46,24.46,0,0,1-24.46,24.46h0a24.34,24.34,0,0,1-15.12-5.23,24.45,24.45,0,0,0,0-38.46,24.46,24.46,0,0,1,39.58,19.23"/></g></g></svg>