<svg id="Layer_1" data-name="Layer 1" xmlns="http://www.w3.org/2000/svg" xmlns:xlink="http://www.w3.org/1999/xlink" viewBox="0 0 197 77"><defs><style>.cls-1{fill:none;}.cls-2{clip-path:url(#clip-path);}.cls-3{fill:url(#linear-gradient);}</style><clipPath id="clip-path"><path class="cls-1" d="M93.31,29.27c-.09,7.13,6.35,11.11,11.21,13.47s6.66,4,6.64,6.16c0,3.32-4,4.78-7.67,4.84a26.74,26.74,0,0,1-13.14-3.13L88,61.46c3,1.37,8.51,2.57,14.24,2.63,13.45,0,22.24-6.64,22.29-16.94,0-13.06-18.07-13.78-17.94-19.62,0-1.77,1.73-3.66,5.43-4.14a24.17,24.17,0,0,1,12.62,2.21l2.26-10.49a34.54,34.54,0,0,0-12-2.2c-12.65,0-21.56,6.73-21.63,16.36m55.24-15.45a5.85,5.85,0,0,0-5.45,3.63L123.89,63.31h13.45L140,55.92h16.42L158,63.31h11.85l-10.34-49.5H148.55m1.88,13.38,3.88,18.58H143.69l6.75-18.58M77,13.81,66.43,63.31h12.8l10.59-49.5H77m-18.94,0L44.75,47.5,39.36,18.86a6,6,0,0,0-5.91-5H11.67l-.3,1.44A53.59,53.59,0,0,1,24,19.46c1.88,1,2.42,1.92,3,4.35l10.21,39.5H50.79l20.74-49.5H58.08"/></clipPath><linearGradient id="linear-gradient" x1="-713.17" y1="-88.59" x2="-713.16" y2="-88.59" gradientTransform="matrix(191.66, 0, 0, -153.95, 136679.57, -13599.44)" gradientUnits="userSpaceOnUse"><stop offset="0" stop-color="#222357"/><stop offset="1" stop-color="#254aa5"/></linearGradient></defs><title>Logo_oplata</title><g id="Visa_2014_logo_detail" data-name="Visa 2014 logo detail"><g id="g10267"><g class="cls-2"><g id="g10269"><g id="g10275"><path id="path10283" class="cls-3" d="M-5.24,19,150.9-38.47,186.42,58,30.28,115.48"/></g></g></g></g></g></svg>