<?xml version="1.0" encoding="utf-8"?>
<!-- Generator: Adobe Illustrator 21.1.0, SVG Export Plug-In . SVG Version: 6.00 Build 0)  -->
<svg version="1.1" id="Слой_1" xmlns="http://www.w3.org/2000/svg" xmlns:xlink="http://www.w3.org/1999/xlink" x="0px" y="0px"
	 viewBox="0 0 500 500" style="enable-background:new 0 0 500 500;" xml:space="preserve">
<style type="text/css">
	.st0{fill:#FFFFFF;}
</style>
<path class="st0" d="M310,245.4l102.7-102.7c17.8-17.8,17.8-46.7,0-64.5l-1.2-1.2c-17.8-17.8-46.7-17.8-64.5,0L244.3,179.7L141.6,77
	c-17.8-17.8-46.7-17.8-64.5,0l-1.2,1.2c-17.8,17.8-17.8,46.7,0,64.5l102.7,102.7L75.9,348.2c-17.8,17.8-17.8,46.7,0,64.5l1.2,1.2
	c17.8,17.8,46.7,17.8,64.5,0l102.7-102.7L347,413.9c17.8,17.8,46.7,17.8,64.5,0l1.2-1.2c17.8-17.8,17.8-46.7,0-64.5L310,245.4z"/>
</svg>
